{"title":"Scream the TV Series S01E10 720p WEB-DL EN-SUB x264-[MULVAcoded]","uid":12356932,"size":278988489,"categoryP":"video","categoryS":"hd___tv_shows","magnet":"?xt=urn:btih:6a8bb01a8c7f0c625b99f732e72f833c680b6c75&amp;dn=Scream+the+TV+Series+S01E10+720p+WEB-DL+EN-SUB+x264-%5BMULVAcoded%5D&amp;tr=udp%3A%2F%2Ftracker.openbittorrent.com%3A80&amp;tr=udp%3A%2F%2Fopen.demonii.com%3A1337&amp;tr=udp%3A%2F%2Ftracker.coppersurfer.tk%3A6969&amp;tr=udp%3A%2F%2Fexodus.desync.com%3A6969","seeders":1,"leechers":0,"uploader":"Mulva1989","files":2,"time":1441485409,"description":"Scream the TV Series S01E10 720p WEB-DL EN-SUB x264-[MULVAcoded]\n\nSeason Finale- Emma races to save another loved one; the killer's identity is revealed.\n\nScreens @ &lt;a href=&quot;\nhttps://yuq.me/users/50/321/nfWG6CKm9p.jpg&quot; rel=&quot;nofollow&quot; target=&quot;_NEW&quot;&gt;\nhttps://yuq.me/users/50/321/nfWG6CKm9p.jpg&lt;/a&gt; &lt;a href=&quot;\nhttps://yuq.me/users/50/321/7Qp8GeF1bH.jpg&quot; rel=&quot;nofollow&quot; target=&quot;_NEW&quot;&gt;\nhttps://yuq.me/users/50/321/7Qp8GeF1bH.jpg&lt;/a&gt; &lt;a href=&quot;\nhttps://yuq.me/users/50/321/BfHFitrMwu.jpg&quot; rel=&quot;nofollow&quot; target=&quot;_NEW&quot;&gt;\nhttps://yuq.me/users/50/321/BfHFitrMwu.jpg&lt;/a&gt;\n\nFormat : MPEG-4\nFormat profile : Base Media\nCodec ID : isom\nFile size : 266 MiB\nDuration : 41mn 35s\nOverall bit rate mode : Variable\nOverall bit rate : 894 Kbps\nEncoded date : UTC 2015-09-05 18:19:14\nTagged date : UTC 2015-09-05 18:19:14\n\nVideo\nID : 2\nFormat : AVC\nFormat/Info : Advanced Video Codec\nFormat profile : &lt;a class=&quot;__cf_email__&quot; href=&quot;/cdn-cgi/l/email-protection&quot; data-cfemail=&quot;f0b8999798b0bcc5dec0&quot;&gt;[email&amp;#160;protected]&lt;/a&gt;&lt;script data-cfhash='f9e31' type=&quot;text/javascript&quot;&gt;\n/* &lt;![CDATA[ */!function(){try{var t=&quot;currentScript&quot;in document?document.currentScript:function(){for(var t=document.getElementsByTagName(&quot;script&quot;),e=t.length;e--;)if(t[e].getAttribute(&quot;data-cfhash&quot;))return t[e]}();if(t&amp;&amp;t.previousSibling){var e,r,n,i,c=t.previousSibling,a=c.getAttribute(&quot;data-cfemail&quot;);if(a){for(e=&quot;&quot;,r=parseInt(a.substr(0,2),16),n=2;a.length-n;n+=2)i=parseInt(a.substr(n,2),16)^r,e+=String.fromCharCode(i);e=document.createTextNode(e),c.parentNode.replaceChild(e,c)}t.parentNode.removeChild(t);}}catch(u){}}()/* ]]&gt; */&lt;/script&gt;\nFormat settings, CABAC : Yes\nFormat settings, ReFrames : 16 frames\nCodec ID : avc1\nCodec ID/Info : Advanced Video Coding\nDuration : 41mn 34s\nBit rate : 792 Kbps\nMaximum bit rate : 3 015 Kbps\nWidth : 1 280 pixels\nHeight : 720 pixels\nDisplay aspect ratio : 16:9\nFrame rate mode : Variable\nFrame rate : 23.976 fps\nMinimum frame rate : 15.989 fps\nMaximum frame rate : 47.904 fps\nColor space : YUV\nChroma subsampling : 4:2:0\nBit depth : 8 bits\nScan type : Progressive\nBits/(Pixel*Frame) : 0.036\nStream size : 235 MiB (89%)\nWriting library : x264 core 130 r2273 b3065e6\nEncoding settings : cabac=1 / ref=16 / deblock=1:0:0 / analyse=0x3:0x113 / me=umh / subme=8 / psy=1 / psy_rd=1.00:0.00 / mixed_ref=1 / me_range=16 / chroma_me=1 / trellis=1 / 8x8dct=1 / cqm=0 / deadzone=21,11 / fast_pskip=1 / chroma_qp_offset=-2 / threads=6 / lookahead_threads=3 / sliced_threads=0 / nr=0 / decimate=1 / interlaced=0 / bluray_compat=0 / constrained_intra=0 / bframes=16 / b_pyramid=2 / b_adapt=2 / b_bias=0 / direct=3 / weightb=1 / open_gop=0 / weightp=2 / keyint=240 / keyint_min=24 / scenecut=40 / intra_refresh=0 / rc_lookahead=50 / rc=crf / mbtree=1 / crf=25.0 / qcomp=0.60 / qpmin=0 / qpmax=69 / qpstep=4 / ip_ratio=1.40 / aq=1:1.00\nLanguage : English\nTagged date : UTC 2015-09-05 18:19:30\nColor primaries : BT.709\nTransfer characteristics : BT.709\nMatrix coefficients : BT.709\nColor range : Limited\n\nAudio\nID : 1\nFormat : AAC\nFormat/Info : Advanced Audio Codec\nFormat profile : LC\nCodec ID : 40\nDuration : 41mn 35s\nBit rate mode : Variable\nBit rate : 96.0 Kbps\nMaximum bit rate : 149 Kbps\nChannel(s) : 2 channels\nChannel positions : Front: L R\nSampling rate : 48.0 KHz\nCompression mode : Lossy\nStream size : 28.5 MiB (11%)\nEncoded date : UTC 2015-09-05 18:19:14\nTagged date : UTC 2015-09-05 18:19:30\n\nText\nID : 3\nFormat : Timed Text\nMuxing mode : sbtl\nCodec ID : tx3g\nDuration : 40mn 47s\nBit rate mode : Variable\nBit rate : 84 bps\nStream size : 25.2 KiB (0%)\nTitle : Scream.s01e10-1.srt:hdlr=sbtl:lang=en:group=2:layer=-1 - Imported with GPAC 0.5.0-rev\nLanguage : English\nEncoded date : UTC 2015-09-05 18:19:30\nTagged date : UTC 2015-09-05 18:19:30","torrent":{"xt":"urn:btih:6a8bb01a8c7f0c625b99f732e72f833c680b6c75","amp;dn":"Scream+the+TV+Series+S01E10+720p+WEB-DL+EN-SUB+x264-%5BMULVAcoded%5D","amp;tr":["udp%3A%2F%2Ftracker.openbittorrent.com%3A80","udp%3A%2F%2Fopen.demonii.com%3A1337","udp%3A%2F%2Ftracker.coppersurfer.tk%3A6969","udp%3A%2F%2Fexodus.desync.com%3A6969"],"infoHash":"6a8bb01a8c7f0c625b99f732e72f833c680b6c75","infoHashBuffer":{"type":"Buffer","data":[106,139,176,26,140,127,12,98,91,153,247,50,231,47,131,60,104,11,108,117]},"announce":[],"urlList":[]}}